<svg width="40" height="36" viewBox="0 0 40 36" fill="none" xmlns="http://www.w3.org/2000/svg">
<path fill-rule="evenodd" clip-rule="evenodd" d="M0 4C0 1.79086 1.79086 0 4 0H36C38.2091 0 40 1.79086 40 4V26C40 28.2091 38.2091 30 36 30H26.8284L21.4142 35.4142C20.6332 36.1953 19.3668 36.1953 18.5858 35.4142L13.1716 30H4C1.79086 30 0 28.2091 0 26V4ZM36 4H4V26H14C14.5304 26 15.0391 26.2107 15.4142 26.5858L20 31.1716L24.5858 26.5858C24.9609 26.2107 25.4696 26 26 26H36V4Z" fill="#3E7FE0"/>
<path d="M23 15C23 16.6569 21.6569 18 20 18C18.3431 18 17 16.6569 17 15C17 13.3431 18.3431 12 20 12C21.6569 12 23 13.3431 23 15Z" fill="#3E7FE0"/>
<path d="M31 15C31 16.6569 29.6569 18 28 18C26.3431 18 25 16.6569 25 15C25 13.3431 26.3431 12 28 12C29.6569 12 31 13.3431 31 15Z" fill="#3E7FE0"/>
<path d="M15 15C15 16.6569 13.6569 18 12 18C10.3431 18 9 16.6569 9 15C9 13.3431 10.3431 12 12 12C13.6569 12 15 13.3431 15 15Z" fill="#3E7FE0"/>
</svg>
